<svg width="260" height="44" viewBox="0 0 260 44" fill="none" xmlns="http://www.w3.org/2000/svg">
<path d="M10.1763 5.36113C10.4265 4.10483 11.0336 2.94728 11.9248 2.02715C12.8161 1.10702 13.9537 0.463328 15.2014 0.173169C16.4491 -0.116989 17.754 -0.0413073 18.9598 0.391149C20.1656 0.823606 21.2211 1.5945 22 2.61149C22.7789 1.5945 23.8344 0.823606 25.0402 0.391149C26.246 -0.0413073 27.5509 -0.116989 28.7986 0.173169C30.0463 0.463328 31.1839 1.10702 32.0752 2.02715C32.9664 2.94728 33.5735 4.10483 33.8237 5.36113L34.1674 7.08516L35.2838 7.30788C36.9652 7.64515 38.4781 8.55414 39.5653 9.88043C40.6525 11.2067 41.247 12.8685 41.2478 14.5834V15.1279C41.2478 17.1241 40.3954 18.9224 39.0343 20.1789C40.6968 21.0027 42.0615 22.3238 42.9387 23.9587C43.816 25.5936 44.1622 27.4611 43.9294 29.3018C43.6966 31.1426 42.8963 32.8651 41.6396 34.2301C40.3829 35.5951 38.7323 36.5348 36.9171 36.9188L36.8153 37.4274C36.4985 39.0125 35.7189 40.4682 34.5749 41.6103C33.431 42.7524 31.9742 43.5297 30.3885 43.844C28.8029 44.1583 27.1597 43.9954 25.6666 43.376C24.1735 42.7566 22.8975 41.7085 22 40.3641C21.1025 41.7085 19.8265 42.7566 18.3334 43.376C16.8403 43.9954 15.1971 44.1583 13.6115 43.844C12.0258 43.5297 10.569 42.7524 9.42505 41.6103C8.28112 40.4682 7.50148 39.0125 7.18467 37.4274L7.08293 36.9188C5.26768 36.5348 3.61707 35.5951 2.36041 34.2301C1.10374 32.8651 0.303411 31.1426 0.0705967 29.3018C-0.162217 27.4611 0.184045 25.5936 1.06128 23.9587C1.93852 22.3238 3.30317 21.0027 4.96567 20.1789C4.26799 19.5354 3.71113 18.7544 3.33017 17.8851C2.94922 17.0158 2.75241 16.077 2.75217 15.1279V14.5834C2.75297 12.8685 3.34748 11.2067 4.4347 9.88043C5.52191 8.55414 7.03477 7.64515 8.71624 7.30788L9.83262 7.08791L10.1763 5.36113ZM32.9988 24.5179V26.1264C32.9988 27.2203 32.5642 28.2694 31.7907 29.0429C31.0172 29.8163 29.9681 30.2509 28.8742 30.2509H23.3748V35.8244C23.3771 37.169 23.8787 38.4649 24.7823 39.4607C25.6859 40.4566 26.9271 41.0813 28.2652 41.2138C29.6033 41.3464 30.943 40.9773 32.0244 40.1781C33.1058 39.3789 33.8519 38.2066 34.1179 36.8885L34.4011 35.4807C34.4544 35.2147 34.5852 34.9705 34.777 34.7787C34.9688 34.5869 35.213 34.4561 35.479 34.4028L36.2791 34.2406C37.7424 33.944 39.0489 33.1278 39.9571 31.9428C40.8653 30.7578 41.314 29.2841 41.2201 27.794C41.1263 26.304 40.4962 24.8983 39.4465 23.8366C38.3967 22.775 36.9982 22.1291 35.5092 22.0185C35.3027 22.5954 34.9703 23.1191 34.536 23.5514C34.1018 23.9838 33.5766 24.3139 32.9988 24.5179ZM30.2491 24.5179C29.5988 24.2874 29.0168 23.8975 28.5563 23.3839C28.0957 22.8703 27.7713 22.2494 27.6128 21.578C27.4543 20.9066 27.4668 20.2062 27.649 19.5409C27.8312 18.8755 28.1774 18.2665 28.656 17.7696C29.1345 17.2727 29.73 16.9037 30.3879 16.6965C31.0459 16.4892 31.7454 16.4503 32.4223 16.5833C33.0992 16.7164 33.732 17.017 34.2626 17.4579C34.7933 17.8987 35.2049 18.4655 35.4597 19.1066C36.3324 18.8684 37.1026 18.3499 37.6516 17.6309C38.2007 16.912 38.4981 16.0325 38.4981 15.1279V14.5834C38.4981 12.3562 36.9281 10.4425 34.7448 10.0053L32.7293 9.60108C32.4633 9.54778 32.2191 9.417 32.0273 9.22521C31.8355 9.03341 31.7047 8.78917 31.6514 8.52322L31.1262 5.90006C30.9377 4.94578 30.4004 4.09596 29.6192 3.51633C28.838 2.9367 27.8689 2.66884 26.9009 2.76499C25.9329 2.86113 25.0354 3.31439 24.3835 4.03636C23.7316 4.75832 23.372 5.69723 23.3748 6.66996V27.5012H28.8742C29.2389 27.5012 29.5886 27.3564 29.8464 27.0986C30.1042 26.8407 30.2491 26.491 30.2491 26.1264V24.5179ZM20.6252 11.0034V6.66721C20.6273 5.69472 20.2672 4.75629 19.6151 4.03485C18.9629 3.31341 18.0655 2.86067 17.0977 2.76489C16.1299 2.66911 15.1612 2.93715 14.3803 3.51676C13.5994 4.09638 13.0623 4.94602 12.8738 5.90006L12.3513 8.52322C12.2978 8.78954 12.1667 9.03404 11.9743 9.22587C11.782 9.41771 11.5372 9.54827 11.2707 9.60108L9.25518 10.0053C8.19727 10.2179 7.24551 10.79 6.56139 11.6245C5.87726 12.4589 5.50291 13.5044 5.50186 14.5834V15.1279C5.50186 16.2217 5.9364 17.2708 6.7099 18.0443C7.4834 18.8178 8.5325 19.2523 9.62639 19.2523H12.3761C13.47 19.2523 14.5191 19.6869 15.2926 20.4603C16.0661 21.2338 16.5006 22.2829 16.5006 23.3768V24.9853C17.4179 25.3096 18.1911 25.9478 18.6834 26.787C19.1757 27.6262 19.3554 28.6124 19.1909 29.5714C19.0264 30.5303 18.5281 31.4002 17.7843 32.0273C17.0404 32.6544 16.0987 32.9984 15.1258 32.9984C14.1528 32.9984 13.2112 32.6544 12.4673 32.0273C11.7234 31.4002 11.2252 30.5303 11.0606 29.5714C10.8961 28.6124 11.0759 27.6262 11.5682 26.787C12.0605 25.9478 12.8336 25.3096 13.7509 24.9853V23.3768C13.7509 23.0122 13.6061 22.6625 13.3482 22.4046C13.0904 22.1468 12.7407 22.002 12.3761 22.002H8.93347C7.40269 22.0064 5.928 22.5786 4.79494 23.608C3.66189 24.6373 2.95108 26.0504 2.80015 27.5737C2.64922 29.097 3.0689 30.6221 3.97794 31.8537C4.88698 33.0854 6.2207 33.9359 7.72086 34.2406L8.52102 34.4028C8.78697 34.4561 9.03122 34.5869 9.22302 34.7787C9.41482 34.9705 9.54559 35.2147 9.59889 35.4807L9.88211 36.8885C10.1481 38.2066 10.8942 39.3789 11.9756 40.1781C13.057 40.9773 14.3967 41.3464 15.7348 41.2138C17.0729 41.0813 18.3141 40.4566 19.2177 39.4607C20.1213 38.4649 20.6229 37.169 20.6252 35.8244V13.753H19.0166C18.6923 14.6703 18.0541 15.4435 17.2149 15.9357C16.3757 16.428 15.3894 16.6078 14.4305 16.4433C13.4715 16.2788 12.6016 15.7805 11.9745 15.0366C11.3474 14.2928 11.0034 13.3512 11.0034 12.3782C11.0034 11.4053 11.3474 10.4637 11.9745 9.71978C12.6016 8.97591 13.4715 8.47768 14.4305 8.31315C15.3894 8.14863 16.3757 8.3284 17.2149 8.82069C18.0541 9.31298 18.6923 10.0861 19.0166 11.0034H20.6252ZM16.5006 12.3782C16.5006 12.0136 16.3558 11.6639 16.0979 11.4061C15.8401 11.1482 15.4904 11.0034 15.1258 11.0034C14.7611 11.0034 14.4114 11.1482 14.1536 11.4061C13.8958 11.6639 13.7509 12.0136 13.7509 12.3782C13.7509 12.7428 13.8958 13.0925 14.1536 13.3504C14.4114 13.6082 14.7611 13.753 15.1258 13.753C15.4904 13.753 15.8401 13.6082 16.0979 13.3504C16.3558 13.0925 16.5006 12.7428 16.5006 12.3782ZM15.1258 30.2509C15.4904 30.2509 15.8401 30.106 16.0979 29.8482C16.3558 29.5904 16.5006 29.2407 16.5006 28.8761C16.5006 28.5114 16.3558 28.1617 16.0979 27.9039C15.8401 27.6461 15.4904 27.5012 15.1258 27.5012C14.7611 27.5012 14.4114 27.6461 14.1536 27.9039C13.8958 28.1617 13.7509 28.5114 13.7509 28.8761C13.7509 29.2407 13.8958 29.5904 14.1536 29.8482C14.4114 30.106 14.7611 30.2509 15.1258 30.2509ZM31.6239 22.002C31.9885 22.002 32.3382 21.8571 32.5961 21.5993C32.8539 21.3415 32.9988 20.9918 32.9988 20.6271C32.9988 20.2625 32.8539 19.9128 32.5961 19.655C32.3382 19.3972 31.9885 19.2523 31.6239 19.2523C31.2593 19.2523 30.9096 19.3972 30.6518 19.655C30.3939 19.9128 30.2491 20.2625 30.2491 20.6271C30.2491 20.9918 30.3939 21.3415 30.6518 21.5993C30.9096 21.8571 31.2593 22.002 31.6239 22.002Z" fill="#2E8B8B"/>
<path d="M52.5824 35V8.81818H62.6051C64.4972 8.81818 66.0696 9.11648 67.3224 9.71307C68.5838 10.3011 69.5256 11.1065 70.1477 12.1293C70.7784 13.152 71.0938 14.3111 71.0938 15.6065C71.0938 16.6719 70.8892 17.5838 70.4801 18.3423C70.071 19.0923 69.5213 19.7017 68.831 20.1705C68.1406 20.6392 67.3693 20.9759 66.517 21.1804V21.4361C67.446 21.4872 68.3366 21.7727 69.1889 22.2926C70.0497 22.804 70.7528 23.5284 71.2983 24.4659C71.8438 25.4034 72.1165 26.5369 72.1165 27.8665C72.1165 29.2216 71.7884 30.4403 71.1321 31.5227C70.4759 32.5966 69.4872 33.4446 68.1662 34.0668C66.8452 34.6889 65.1832 35 63.1804 35H52.5824ZM57.3253 31.0369H62.4261C64.1477 31.0369 65.3878 30.7088 66.1463 30.0526C66.9134 29.3878 67.2969 28.5355 67.2969 27.4957C67.2969 26.7202 67.1051 26.0213 66.7216 25.3991C66.3381 24.7685 65.7926 24.2741 65.0852 23.9162C64.3778 23.5497 63.5341 23.3665 62.554 23.3665H57.3253V31.0369ZM57.3253 19.9531H62.017C62.8352 19.9531 63.5724 19.804 64.2287 19.5057C64.8849 19.1989 65.4006 18.7685 65.7756 18.2145C66.1591 17.652 66.3509 16.9872 66.3509 16.2202C66.3509 15.206 65.9929 14.3707 65.277 13.7145C64.5696 13.0582 63.517 12.7301 62.1193 12.7301H57.3253V19.9531ZM76.038 35V15.3636H80.5252V18.6364H80.7298C81.0877 17.5028 81.7013 16.6293 82.5707 16.0156C83.4485 15.3935 84.4499 15.0824 85.5749 15.0824C85.8306 15.0824 86.1161 15.0952 86.4315 15.1207C86.7553 15.1378 87.0238 15.1676 87.2369 15.2102V19.4673C87.0408 19.3991 86.7298 19.3395 86.3036 19.2884C85.886 19.2287 85.4812 19.1989 85.0891 19.1989C84.2454 19.1989 83.4869 19.3821 82.8136 19.7486C82.1488 20.1065 81.6246 20.6051 81.2411 21.2443C80.8576 21.8835 80.6658 22.6207 80.6658 23.456V35H76.038ZM95.6104 35.3963C94.3661 35.3963 93.2454 35.1747 92.2482 34.7315C91.2596 34.2798 90.4755 33.6151 89.896 32.7372C89.3249 31.8594 89.0394 30.777 89.0394 29.4901C89.0394 28.3821 89.244 27.4659 89.6531 26.7415C90.0621 26.017 90.6204 25.4375 91.3278 25.0028C92.0352 24.5682 92.832 24.2401 93.7184 24.0185C94.6133 23.7884 95.538 23.6222 96.4925 23.5199C97.6431 23.4006 98.5763 23.294 99.2923 23.2003C100.008 23.098 100.528 22.9446 100.852 22.7401C101.184 22.527 101.35 22.1989 101.35 21.7557V21.679C101.35 20.7159 101.065 19.9702 100.494 19.4418C99.9229 18.9134 99.1005 18.6491 98.0266 18.6491C96.8931 18.6491 95.994 18.8963 95.3292 19.3906C94.6729 19.8849 94.2298 20.4687 93.9996 21.142L89.6786 20.5284C90.0195 19.3352 90.582 18.3381 91.3661 17.5369C92.1502 16.7273 93.109 16.1222 94.2425 15.7216C95.3761 15.3125 96.6289 15.108 98.0011 15.108C98.9471 15.108 99.8889 15.2188 100.826 15.4403C101.764 15.6619 102.62 16.0284 103.396 16.5398C104.172 17.0426 104.794 17.7287 105.262 18.598C105.74 19.4673 105.978 20.554 105.978 21.858V35H101.529V32.3026H101.376C101.095 32.848 100.699 33.3594 100.187 33.8366C99.6843 34.3054 99.0494 34.6847 98.2823 34.9744C97.5238 35.2557 96.6332 35.3963 95.6104 35.3963ZM96.8121 31.9957C97.7411 31.9957 98.5465 31.8125 99.2283 31.446C99.9102 31.071 100.434 30.5767 100.801 29.9631C101.176 29.3494 101.363 28.6804 101.363 27.956V25.642C101.218 25.7614 100.971 25.8722 100.622 25.9744C100.281 26.0767 99.8974 26.1662 99.4712 26.2429C99.0451 26.3196 98.6232 26.3878 98.2056 26.4474C97.788 26.5071 97.4258 26.5582 97.119 26.6009C96.4286 26.6946 95.8107 26.848 95.2653 27.0611C94.7198 27.2741 94.2894 27.5724 93.9741 27.956C93.6587 28.331 93.5011 28.8168 93.5011 29.4134C93.5011 30.2656 93.8121 30.9091 94.4343 31.3438C95.0565 31.7784 95.8491 31.9957 96.8121 31.9957ZM110.632 35V15.3636H115.26V35H110.632ZM112.958 12.5767C112.225 12.5767 111.595 12.3338 111.066 11.848C110.538 11.3537 110.274 10.7614 110.274 10.071C110.274 9.37216 110.538 8.77983 111.066 8.29403C111.595 7.79971 112.225 7.55256 112.958 7.55256C113.7 7.55256 114.331 7.79971 114.85 8.29403C115.379 8.77983 115.643 9.37216 115.643 10.071C115.643 10.7614 115.379 11.3537 114.85 11.848C114.331 12.3338 113.7 12.5767 112.958 12.5767ZM124.646 23.4943V35H120.018V15.3636H124.442V18.7003H124.672C125.124 17.6009 125.844 16.7273 126.832 16.0795C127.83 15.4318 129.061 15.108 130.527 15.108C131.882 15.108 133.063 15.3977 134.068 15.9773C135.082 16.5568 135.866 17.3963 136.42 18.4957C136.983 19.5952 137.26 20.929 137.251 22.4972V35H132.624V23.2131C132.624 21.9006 132.283 20.8736 131.601 20.1321C130.928 19.3906 129.994 19.0199 128.801 19.0199C127.991 19.0199 127.271 19.1989 126.641 19.5568C126.018 19.9062 125.528 20.4134 125.17 21.0781C124.821 21.7429 124.646 22.5483 124.646 23.4943ZM149.94 12.794V8.81818H170.829V12.794H162.737V35H158.032V12.794H149.94ZM184.495 26.7415V15.3636H189.123V35H184.636V31.5099H184.431C183.988 32.6094 183.259 33.5085 182.245 34.2074C181.239 34.9062 179.999 35.2557 178.525 35.2557C177.238 35.2557 176.1 34.9702 175.112 34.3991C174.131 33.8196 173.364 32.9801 172.81 31.8807C172.256 30.7727 171.979 29.4347 171.979 27.8665V15.3636H176.607V27.1506C176.607 28.3949 176.948 29.3835 177.63 30.1165C178.312 30.8494 179.207 31.2159 180.315 31.2159C180.996 31.2159 181.657 31.0497 182.296 30.7173C182.935 30.3849 183.46 29.8906 183.869 29.2344C184.286 28.5696 184.495 27.7386 184.495 26.7415ZM193.882 35V15.3636H198.305V18.7003H198.535C198.944 17.5753 199.622 16.6974 200.568 16.0668C201.514 15.4276 202.643 15.108 203.956 15.108C205.285 15.108 206.406 15.4318 207.318 16.0795C208.238 16.7187 208.886 17.5923 209.261 18.7003H209.466C209.9 17.6094 210.633 16.7401 211.664 16.0923C212.704 15.4361 213.936 15.108 215.359 15.108C217.166 15.108 218.64 15.679 219.782 16.821C220.924 17.9631 221.495 19.6293 221.495 21.8196V35H216.855V22.5355C216.855 21.3168 216.531 20.4261 215.883 19.8636C215.235 19.2926 214.443 19.0071 213.505 19.0071C212.389 19.0071 211.515 19.3565 210.885 20.0554C210.262 20.7457 209.951 21.6449 209.951 22.7528V35H205.413V22.3438C205.413 21.3295 205.106 20.5199 204.493 19.9148C203.887 19.3097 203.095 19.0071 202.115 19.0071C201.45 19.0071 200.845 19.1776 200.299 19.5185C199.754 19.8509 199.319 20.3239 198.995 20.9375C198.672 21.5426 198.51 22.25 198.51 23.0597V35H193.882ZM234.756 35.3835C232.838 35.3835 231.176 34.9616 229.77 34.1179C228.364 33.2741 227.273 32.0937 226.497 30.5767C225.73 29.0597 225.347 27.2869 225.347 25.2585C225.347 23.2301 225.73 21.4531 226.497 19.9276C227.273 18.402 228.364 17.2173 229.77 16.3736C231.176 15.5298 232.838 15.108 234.756 15.108C236.673 15.108 238.335 15.5298 239.741 16.3736C241.148 17.2173 242.234 18.402 243.001 19.9276C243.777 21.4531 244.165 23.2301 244.165 25.2585C244.165 27.2869 243.777 29.0597 243.001 30.5767C242.234 32.0937 241.148 33.2741 239.741 34.1179C238.335 34.9616 236.673 35.3835 234.756 35.3835ZM234.781 31.6761C235.821 31.6761 236.69 31.3906 237.389 30.8196C238.088 30.2401 238.608 29.4645 238.949 28.4929C239.298 27.5213 239.473 26.4389 239.473 25.2457C239.473 24.044 239.298 22.9574 238.949 21.9858C238.608 21.0057 238.088 20.2259 237.389 19.6463C236.69 19.0668 235.821 18.777 234.781 18.777C233.716 18.777 232.83 19.0668 232.122 19.6463C231.423 20.2259 230.899 21.0057 230.55 21.9858C230.209 22.9574 230.038 24.044 230.038 25.2457C230.038 26.4389 230.209 27.5213 230.55 28.4929C230.899 29.4645 231.423 30.2401 232.122 30.8196C232.83 31.3906 233.716 31.6761 234.781 31.6761ZM248.093 35V15.3636H252.58V18.6364H252.784C253.142 17.5028 253.756 16.6293 254.625 16.0156C255.503 15.3935 256.505 15.0824 257.63 15.0824C257.885 15.0824 258.171 15.0952 258.486 15.1207C258.81 15.1378 259.078 15.1676 259.292 15.2102V19.4673C259.096 19.3991 258.784 19.3395 258.358 19.2884C257.941 19.2287 257.536 19.1989 257.144 19.1989C256.3 19.1989 255.542 19.3821 254.868 19.7486C254.203 20.1065 253.679 20.6051 253.296 21.2443C252.912 21.8835 252.721 22.6207 252.721 23.456V35H248.093Z" fill="#2E8B8B"/>
</svg>
