<svg width="24" height="24" viewBox="0 0 24 24" fill="none" xmlns="http://www.w3.org/2000/svg">
<path fill-rule="evenodd" clip-rule="evenodd" d="M9.56695 5.25C9.61084 5.174 9.67396 5.11088 9.74996 5.067C9.82597 5.02312 9.91219 5.00002 9.99995 5.00002C10.0877 5.00002 10.1739 5.02312 10.2499 5.067C10.3259 5.11088 10.3891 5.174 10.433 5.25L12.943 9.6015C12.6924 10.2287 12.5873 10.9046 12.6355 11.5783C12.6838 12.252 12.8842 12.906 13.2217 13.4911C13.5592 14.0762 14.0249 14.5771 14.5839 14.9562C15.1429 15.3354 15.7805 15.5828 16.449 15.68L17.9315 18.251C17.9754 18.327 17.9985 18.4133 17.9984 18.5011C17.9984 18.5889 17.9753 18.6752 17.9313 18.7512C17.8874 18.8272 17.8242 18.8903 17.7481 18.9342C17.672 18.978 17.5858 19.0011 17.498 19.001H2.50145C2.41368 19.001 2.32746 18.9779 2.25146 18.934C2.17545 18.8901 2.11233 18.827 2.06845 18.751C2.02457 18.675 2.00146 18.5888 2.00146 18.501C2.00147 18.4132 2.02457 18.327 2.06845 18.251L9.56695 5.25ZM9.37445 16.275V15.025H10.6255V16.275H9.37445ZM9.99995 10.0225C9.65495 10.0225 9.37495 10.3025 9.37495 10.6475V13.3975C9.37495 13.5634 9.44085 13.7225 9.55816 13.8398C9.67546 13.9571 9.83456 14.023 10.0005 14.023C10.1663 14.023 10.3254 13.9571 10.4427 13.8398C10.5601 13.7225 10.626 13.5634 10.626 13.3975V10.6475C10.626 10.3025 10.3455 10.0225 9.99995 10.0225Z" fill="#2E8B8B"/>
<path fill-rule="evenodd" clip-rule="evenodd" d="M13.625 11.2325C13.626 11.0958 13.6348 10.9617 13.6515 10.83C13.7158 10.3125 13.896 9.81613 14.1787 9.3779C14.4613 8.93966 14.8392 8.57084 15.2842 8.29887C15.7292 8.0269 16.2297 7.8588 16.7487 7.80708C17.2676 7.75536 17.7915 7.82135 18.2814 8.00014C18.7713 8.17894 19.2145 8.46593 19.5781 8.83975C19.9417 9.21356 20.2164 9.66459 20.3815 10.1592C20.5467 10.6539 20.5982 11.1794 20.5321 11.6967C20.4661 12.214 20.2842 12.7097 20 13.147L22.002 15.149L21.248 15.9035L19.287 13.9425C18.6684 14.4504 17.8924 14.7274 17.092 14.726C16.6279 14.7268 16.1684 14.6339 15.741 14.453C15.3166 14.2728 14.9323 14.01 14.6103 13.68C14.2883 13.3499 14.0352 12.9592 13.8655 12.5305C13.7059 12.1258 13.6243 11.6945 13.625 11.2595V11.2325ZM17.0915 13.6595C17.4067 13.6595 17.7188 13.5974 18.0099 13.4768C18.3011 13.3562 18.5657 13.1794 18.7886 12.9566C19.0114 12.7337 19.1882 12.4691 19.3088 12.1779C19.4294 11.8868 19.4915 11.5747 19.4915 11.2595C19.4915 10.9443 19.4294 10.6322 19.3088 10.3411C19.1882 10.0499 19.0114 9.78531 18.7886 9.56245C18.5657 9.33958 18.3011 9.1628 18.0099 9.04219C17.7188 8.92158 17.4067 8.8595 17.0915 8.8595C16.455 8.8595 15.8445 9.11236 15.3944 9.56245C14.9444 10.0125 14.6915 10.623 14.6915 11.2595C14.6915 11.896 14.9444 12.5065 15.3944 12.9566C15.8445 13.4066 16.455 13.6595 17.0915 13.6595Z" fill="#2E8B8B"/>
</svg>
