<svg width="24" height="24" viewBox="0 0 24 24" fill="none" xmlns="http://www.w3.org/2000/svg">
<g clip-path="url(#clip0_150_852)">
<path d="M11.9998 7.49978C10.7554 7.49978 9.56186 7.9739 8.68188 8.81786C7.80191 9.66182 7.30754 10.8065 7.30754 12C7.30754 13.1935 7.80191 14.3382 8.68188 15.1821C9.56186 16.0261 10.7554 16.5002 11.9998 16.5002C13.2443 16.5002 14.4378 16.0261 15.3178 15.1821C16.1978 14.3382 16.6922 13.1935 16.6922 12C16.6922 10.8065 16.1978 9.66182 15.3178 8.81786C14.4378 7.9739 13.2443 7.49978 11.9998 7.49978ZM8.87164 12C8.87164 11.2043 9.20122 10.4412 9.78787 9.87857C10.3745 9.31594 11.1702 8.99985 11.9998 8.99985C12.8295 8.99985 13.6252 9.31594 14.2118 9.87857C14.7985 10.4412 15.128 11.2043 15.128 12C15.128 12.7957 14.7985 13.5588 14.2118 14.1214C13.6252 14.6841 12.8295 15.0002 11.9998 15.0002C11.1702 15.0002 10.3745 14.6841 9.78787 14.1214C9.20122 13.5588 8.87164 12.7957 8.87164 12ZM9.18071 23.6814C10.106 23.8932 11.0533 24 12.0042 24C12.9531 23.9992 13.8987 23.8916 14.8215 23.6796C15.0641 23.6236 15.2828 23.4972 15.4478 23.3177C15.6128 23.1381 15.7161 22.9142 15.7437 22.6763L15.9551 20.8336C15.9911 20.5042 16.1484 20.1979 16.3987 19.9697C16.6491 19.7415 16.976 19.6063 17.3209 19.5886C17.5505 19.579 17.7789 19.6204 17.9891 19.7086L19.7453 20.4472C19.8979 20.5132 20.0633 20.5477 20.2307 20.5488C20.3982 20.5498 20.564 20.5173 20.7175 20.4532C20.8721 20.3902 21.0103 20.2966 21.1242 20.1784C22.415 18.8432 23.379 17.2486 23.9458 15.5108C24.0202 15.2802 24.0179 15.0332 23.9395 14.8039C23.861 14.5746 23.7102 14.3744 23.5079 14.2309L21.9475 13.1269C21.7617 12.9974 21.6104 12.8276 21.5061 12.6313C21.4018 12.4351 21.3475 12.2179 21.3475 11.9976C21.3475 11.7773 21.4018 11.5601 21.5061 11.3639C21.6104 11.1676 21.7617 10.9978 21.9475 10.8683L23.5029 9.76669C23.7058 9.62301 23.857 9.42227 23.9355 9.19236C24.014 8.96244 24.0159 8.71479 23.9408 8.48382C23.3748 6.74537 22.4096 5.15077 21.1161 3.81739C20.9445 3.64207 20.7206 3.52199 20.475 3.47364C20.2295 3.42529 19.9743 3.45105 19.7447 3.54738L17.9891 4.28901C17.8077 4.36762 17.61 4.40902 17.4098 4.40902C17.0495 4.40808 16.7022 4.27975 16.4344 4.04859C16.1666 3.81744 15.9971 3.49969 15.9583 3.15616L15.7456 1.32007C15.7181 1.07917 15.6129 0.852514 15.4446 0.671702C15.2764 0.49089 15.0535 0.364939 14.8071 0.311416C13.8889 0.114981 12.9518 0.0106146 12.0111 0C11.064 0.0108187 10.1205 0.115378 9.19572 0.312016C8.94945 0.364988 8.72659 0.490459 8.55832 0.670879C8.39006 0.8513 8.2848 1.07765 8.25726 1.31827L8.04454 3.15556C8.00412 3.49966 7.83309 3.81747 7.56405 4.0484C7.28914 4.27213 6.94283 4.39914 6.58242 4.40842C6.38362 4.40829 6.18699 4.36866 6.00496 4.29202L4.25316 3.55038C4.02274 3.4531 3.76648 3.42694 3.51987 3.47553C3.27327 3.52412 3.04852 3.64506 2.87675 3.82159C1.5854 5.15553 0.621339 6.74948 0.0551135 8.48682C-0.0197914 8.71771 -0.0178693 8.96523 0.0606132 9.19502C0.139096 9.42481 0.290242 9.62545 0.493062 9.76909L2.04966 10.8707C2.32773 11.0678 2.52424 11.3528 2.60448 11.6754C2.68473 11.998 2.64356 12.3374 2.48823 12.6336C2.3849 12.8301 2.23488 13.0004 2.05028 13.1311L0.492436 14.2345C0.289866 14.3781 0.13888 14.5785 0.0604085 14.808C-0.0180627 15.0376 -0.0201319 15.2849 0.0544879 15.5156C0.619143 17.2548 1.58335 18.8505 2.87613 20.185C3.04689 20.3616 3.27081 20.4828 3.51673 20.5316C3.76265 20.5804 4.01832 20.5545 4.24816 20.4574L6.01121 19.7152C6.19327 19.6384 6.38972 19.5988 6.58868 19.5988H6.59368C6.95262 19.5995 7.29878 19.7266 7.56638 19.9561C7.83398 20.1855 8.00437 20.5012 8.04517 20.8432L8.25664 22.6775C8.28418 22.9157 8.38771 23.14 8.5531 23.3197C8.71848 23.4993 8.93766 23.6256 9.18071 23.6814ZM14.2259 22.2743C12.7619 22.5743 11.2478 22.5743 9.78382 22.2743L9.59363 20.677C9.51067 19.9684 9.15875 19.3138 8.60493 18.8379C8.05111 18.3621 7.3341 18.0983 6.59056 18.0969H6.5843C6.16948 18.0945 5.75883 18.1763 5.37932 18.3369L3.849 18.9807C2.85572 17.9073 2.09821 16.6529 1.62172 15.2924L2.97623 14.3323C3.35794 14.0624 3.6682 13.7102 3.88202 13.3042C4.09584 12.8982 4.20724 12.4497 4.20724 11.9949C4.20724 11.5401 4.09584 11.0916 3.88202 10.6856C3.6682 10.2796 3.35794 9.92742 2.97623 9.65748L1.62234 8.69744C2.10111 7.33906 2.85864 6.08637 3.85025 5.01325L5.37181 5.65648C5.75195 5.81897 6.16373 5.9022 6.57992 5.90069H6.58618C7.33157 5.89921 8.05032 5.63464 8.60534 5.15745C9.16036 4.68026 9.51282 4.02384 9.59551 3.31337L9.7832 1.71729C10.5172 1.57633 11.2632 1.50081 12.0117 1.49167C12.7544 1.50068 13.4945 1.57568 14.2227 1.71669L14.4104 3.31217C14.4907 4.0226 14.8416 4.67963 15.3958 5.1573C15.9499 5.63497 16.6684 5.89968 17.4135 5.90069C17.8337 5.91017 18.2505 5.82596 18.631 5.65468L20.1513 5.01205C21.1446 6.08434 21.9025 7.33752 22.3798 8.69684L21.0303 9.65268C20.6459 9.92141 20.3331 10.2735 20.1175 10.6801C19.9018 11.0868 19.7894 11.5366 19.7894 11.9928C19.7894 12.449 19.9018 12.8988 20.1175 13.3055C20.3331 13.7121 20.6459 14.0642 21.0303 14.3329L22.3849 15.293C21.9063 16.6513 21.149 17.904 20.1576 18.9771L18.631 18.3351C18.1964 18.1502 17.7224 18.0665 17.2476 18.0907C16.7729 18.115 16.3108 18.2466 15.8992 18.4748C15.4875 18.7029 15.138 19.0212 14.879 19.4036C14.6201 19.7861 14.4591 20.2218 14.4092 20.6752L14.2259 22.2743Z" fill="white"/>
</g>
<defs>
<clipPath id="clip0_150_852">
<rect width="24" height="24" rx="12" fill="white"/>
</clipPath>
</defs>
</svg>
