<svg width="24" height="24" viewBox="0 0 24 24" fill="none" xmlns="http://www.w3.org/2000/svg">
<path d="M9.83722 7.24299L11.0556 6.07333V16.5013C11.0556 16.7399 11.1551 16.9688 11.3322 17.1375C11.5093 17.3063 11.7495 17.401 12 17.401C12.2505 17.401 12.4907 17.3063 12.6678 17.1375C12.8449 16.9688 12.9444 16.7399 12.9444 16.5013V6.07333L14.1628 7.24299C14.2506 7.32732 14.355 7.39425 14.4701 7.43993C14.5852 7.48561 14.7087 7.50913 14.8333 7.50913C14.958 7.50913 15.0815 7.48561 15.1965 7.43993C15.3116 7.39425 15.4161 7.32732 15.5039 7.24299C15.5924 7.15935 15.6627 7.05983 15.7106 6.95019C15.7586 6.84055 15.7833 6.72295 15.7833 6.60417C15.7833 6.4854 15.7586 6.3678 15.7106 6.25815C15.6627 6.14851 15.5924 6.049 15.5039 5.96536L12.6706 3.26614C12.5828 3.18181 12.4783 3.11487 12.3632 3.0692C12.2481 3.02352 12.1247 3 12 3C11.8753 3 11.7519 3.02352 11.6368 3.0692C11.5217 3.11487 11.4172 3.18181 11.3294 3.26614L8.49611 5.96536C8.31827 6.13478 8.21836 6.36457 8.21836 6.60417C8.21836 6.84378 8.31827 7.07356 8.49611 7.24299C8.67395 7.41241 8.91516 7.50759 9.16667 7.50759C9.41817 7.50759 9.65938 7.41241 9.83722 7.24299ZM17.6667 9.30339H15.7778C15.5273 9.30339 15.2871 9.39818 15.11 9.56692C14.9328 9.73565 14.8333 9.9645 14.8333 10.2031C14.8333 10.4418 14.9328 10.6706 15.11 10.8393C15.2871 11.0081 15.5273 11.1029 15.7778 11.1029H17.6667C17.9171 11.1029 18.1574 11.1977 18.3345 11.3664C18.5116 11.5351 18.6111 11.764 18.6111 12.0026V18.3008C18.6111 18.5394 18.5116 18.7683 18.3345 18.937C18.1574 19.1057 17.9171 19.2005 17.6667 19.2005H6.33333C6.08285 19.2005 5.84263 19.1057 5.66551 18.937C5.48839 18.7683 5.38889 18.5394 5.38889 18.3008V12.0026C5.38889 11.764 5.48839 11.5351 5.66551 11.3664C5.84263 11.1977 6.08285 11.1029 6.33333 11.1029H8.22222C8.4727 11.1029 8.71293 11.0081 8.89005 10.8393C9.06716 10.6706 9.16667 10.4418 9.16667 10.2031C9.16667 9.9645 9.06716 9.73565 8.89005 9.56692C8.71293 9.39818 8.4727 9.30339 8.22222 9.30339H6.33333C5.58189 9.30339 4.86122 9.58777 4.32986 10.094C3.79851 10.6002 3.5 11.2867 3.5 12.0026V18.3008C3.5 19.0167 3.79851 19.7032 4.32986 20.2094C4.86122 20.7156 5.58189 21 6.33333 21H17.6667C18.4181 21 19.1388 20.7156 19.6701 20.2094C20.2015 19.7032 20.5 19.0167 20.5 18.3008V12.0026C20.5 11.2867 20.2015 10.6002 19.6701 10.094C19.1388 9.58777 18.4181 9.30339 17.6667 9.30339Z" fill="white"/>
</svg>
